<svg xmlns="http://www.w3.org/2000/svg" xmlns:xlink="http://www.w3.org/1999/xlink" version="1.1" width="256" height="256" viewBox="0 0 256 256" xml:space="preserve">
<g style="stroke: none; stroke-width: 0; stroke-dasharray: none; stroke-linecap: butt; stroke-linejoin: miter; stroke-miterlimit: 10; fill: none; fill-rule: nonzero; opacity: 1;" transform="translate(1.4065934065934016 1.4065934065934016) scale(2.81 2.81)">
	<path d="M 45 55.183 c -5.615 0 -10.183 -4.568 -10.183 -10.183 c 0 -5.615 4.568 -10.183 10.183 -10.183 c 5.614 0 10.183 4.568 10.183 10.183 C 55.183 50.614 50.614 55.183 45 55.183 z M 45 36.817 c -4.512 0 -8.183 3.671 -8.183 8.183 s 3.671 8.183 8.183 8.183 s 8.183 -3.671 8.183 -8.183 S 49.512 36.817 45 36.817 z" style="stroke: none; stroke-width: 1; stroke-dasharray: none; stroke-linecap: butt; stroke-linejoin: miter; stroke-miterlimit: 10; fill: rgb(0,0,0); fill-rule: nonzero; opacity: 1;" transform=" matrix(1 0 0 1 0 0) " stroke-linecap="round"/>
	<path d="M 45 90 c -5.651 0 -10.25 -4.598 -10.25 -10.249 c 0 -5.652 4.598 -10.25 10.25 -10.25 s 10.249 4.598 10.249 10.25 C 55.249 85.402 50.651 90 45 90 z M 45 71.501 c -4.549 0 -8.25 3.701 -8.25 8.25 S 40.451 88 45 88 s 8.249 -3.7 8.249 -8.249 S 49.549 71.501 45 71.501 z" style="stroke: none; stroke-width: 1; stroke-dasharray: none; stroke-linecap: butt; stroke-linejoin: miter; stroke-miterlimit: 10; fill: rgb(0,0,0); fill-rule: nonzero; opacity: 1;" transform=" matrix(1 0 0 1 0 0) " stroke-linecap="round"/>
	<path d="M 45 20.499 c -5.651 0 -10.25 -4.598 -10.25 -10.249 S 39.349 0 45 0 s 10.249 4.598 10.249 10.25 S 50.651 20.499 45 20.499 z M 45 2 c -4.549 0 -8.25 3.701 -8.25 8.25 c 0 4.548 3.701 8.249 8.25 8.249 s 8.249 -3.701 8.249 -8.249 C 53.249 5.701 49.549 2 45 2 z" style="stroke: none; stroke-width: 1; stroke-dasharray: none; stroke-linecap: butt; stroke-linejoin: miter; stroke-miterlimit: 10; fill: rgb(0,0,0); fill-rule: nonzero; opacity: 1;" transform=" matrix(1 0 0 1 0 0) " stroke-linecap="round"/>
</g>
</svg>